<?xml version="1.0" ?><svg id="Layer_1" style="enable-background:new 0 0 200 200;" version="1.1" viewBox="0 0 200 200" xml:space="preserve" xmlns="http://www.w3.org/2000/svg" xmlns:xlink="http://www.w3.org/1999/xlink"><style type="text/css">
	.st0{fill:url(#SVGID_1_);}
	.st1{fill:url(#SVGID_2_);}
	.st2{fill:url(#SVGID_3_);}
	.st3{fill:url(#SVGID_4_);}
	.st4{fill:url(#SVGID_5_);}
</style><g><linearGradient gradientUnits="userSpaceOnUse" id="SVGID_1_" x1="159.9487" x2="23.6513" y1="170.892" y2="34.5945"><stop offset="0" style="stop-color:#007FE2"/><stop offset="1" style="stop-color:#39D3B8"/></linearGradient><path class="st0" d="M160.855,67.684l-41.663-41.663c-0.162-0.163-0.341-0.308-0.533-0.437c-0.083-0.055-0.173-0.093-0.259-0.141   c-0.112-0.062-0.22-0.129-0.338-0.178c-0.113-0.047-0.231-0.073-0.347-0.108c-0.1-0.03-0.197-0.068-0.301-0.089   c-0.449-0.089-0.911-0.089-1.36,0c-0.104,0.021-0.2,0.059-0.301,0.089c-0.116,0.034-0.234,0.061-0.347,0.108   c-0.119,0.049-0.227,0.117-0.338,0.178c-0.086,0.047-0.176,0.085-0.259,0.141c-0.381,0.255-0.709,0.582-0.963,0.963   c-0.054,0.081-0.091,0.17-0.138,0.254c-0.063,0.113-0.131,0.222-0.181,0.343c-0.047,0.113-0.073,0.23-0.107,0.346   c-0.03,0.101-0.069,0.197-0.089,0.302c-0.045,0.224-0.068,0.452-0.068,0.68v41.667c0,1.918,1.554,3.472,3.472,3.472h19.444   c1.918,0,3.472-1.554,3.472-3.472c0-1.918-1.554-3.472-3.472-3.472h-15.972V36.854l34.722,34.723v90.03   c0,3.556-2.901,6.448-6.467,6.448h-87.08c-1.918,0-3.472,1.554-3.472,3.472c0,1.918,1.554,3.472,3.472,3.472h87.08   c7.395,0,13.411-6.008,13.411-13.392V70.139C161.872,69.218,161.507,68.335,160.855,67.684z"/><linearGradient gradientUnits="userSpaceOnUse" id="SVGID_2_" x1="149.4482" x2="13.1507" y1="181.3926" y2="45.0951"><stop offset="0" style="stop-color:#007FE2"/><stop offset="1" style="stop-color:#39D3B8"/></linearGradient><path class="st1" d="M97.983,28.472c0-1.918-1.554-3.472-3.472-3.472H51.539c-7.395,0-13.411,6.007-13.411,13.392v133.136   c0,1.918,1.554,3.472,3.472,3.472c1.918,0,3.472-1.554,3.472-3.472V38.392c0-3.555,2.901-6.447,6.467-6.447h42.972   C96.429,31.944,97.983,30.39,97.983,28.472z"/><linearGradient gradientUnits="userSpaceOnUse" id="SVGID_3_" x1="169.3239" x2="33.0264" y1="161.5168" y2="25.2194"><stop offset="0" style="stop-color:#007FE2"/><stop offset="1" style="stop-color:#39D3B8"/></linearGradient><path class="st2" d="M61.381,73.611h33.131c1.918,0,3.472-1.554,3.472-3.472c0-1.918-1.554-3.472-3.472-3.472H61.381   c-1.918,0-3.472,1.554-3.472,3.472C57.908,72.057,59.463,73.611,61.381,73.611z"/><linearGradient gradientUnits="userSpaceOnUse" id="SVGID_4_" x1="149.8795" x2="13.582" y1="180.9613" y2="44.6638"><stop offset="0" style="stop-color:#007FE2"/><stop offset="1" style="stop-color:#39D3B8"/></linearGradient><path class="st3" d="M136.178,126.389H61.381c-1.918,0-3.472,1.554-3.472,3.472s1.554,3.472,3.472,3.472h74.797   c1.918,0,3.472-1.554,3.472-3.472S138.096,126.389,136.178,126.389z"/><linearGradient gradientUnits="userSpaceOnUse" id="SVGID_5_" x1="164.81" x2="28.5126" y1="166.0307" y2="29.7333"><stop offset="0" style="stop-color:#007FE2"/><stop offset="1" style="stop-color:#39D3B8"/></linearGradient><path class="st4" d="M136.178,96.528H61.381c-1.918,0-3.472,1.554-3.472,3.472s1.554,3.472,3.472,3.472h74.797   c1.918,0,3.472-1.554,3.472-3.472S138.096,96.528,136.178,96.528z"/></g></svg>